<?xml version="1.0" encoding="UTF-8" standalone="no"?>
<svg
   viewBox="0 0 5000 1000"
   version="1.1"
   id="svg20"
   sodipodi:docname="imagotipo-horizontal-WoB.svg"
   inkscape:version="1.1 (c68e22c387, 2021-05-23)"
   xmlns:inkscape="http://www.inkscape.org/namespaces/inkscape"
   xmlns:sodipodi="http://sodipodi.sourceforge.net/DTD/sodipodi-0.dtd"
   xmlns="http://www.w3.org/2000/svg"
   xmlns:svg="http://www.w3.org/2000/svg">
  <defs
     id="defs24" />
  <sodipodi:namedview
     id="namedview22"
     pagecolor="#505050"
     bordercolor="#eeeeee"
     borderopacity="1"
     inkscape:pageshadow="0"
     inkscape:pageopacity="0"
     inkscape:pagecheckerboard="0"
     showgrid="false"
     inkscape:zoom="0.2504"
     inkscape:cx="2046.7252"
     inkscape:cy="501.19808"
     inkscape:window-width="1920"
     inkscape:window-height="1001"
     inkscape:window-x="1699"
     inkscape:window-y="-9"
     inkscape:window-maximized="1"
     inkscape:current-layer="svg20" />
  <path
     d="m 3807.571,233.13306 c 1.079,1.956 68.47,123.65 149.75,270.437 81.28,146.787 147.821,266.896 147.862,266.915 0.042,0.019 31.741,-53.671 70.42,-119.303 54.996,-93.284 70.369,-119.303 70.462,-119.212 0.072,0.065 31.107,53.782 68.978,119.36 37.871,65.577 68.895,119.201 68.937,119.164 0.062,-0.055 301.346,-532.653 305.37,-539.815 l 0.613,-1.085 -156.576,0.019 -156.585,0.027 -65.203,110.621 c -35.858,60.833 -65.234,110.593 -65.265,110.565 -0.031,-0.028 -28.784,-49.805 -63.905,-110.62 l -63.865,-110.566 -156.482,-0.027 -156.482,-0.019 z m 333.439,116.877 c 26.379,45.663 55.515,96.127 64.767,112.14 l 16.815,29.114 -22.841,38.761 c -12.572,21.322 -22.976,38.965 -23.131,39.206 l -0.28,0.445 -65.421,-115.672 c -35.993,-63.621 -65.441,-115.679 -65.451,-115.688 -0.042,-0.046 -37.301,16.79 -37.301,16.854 0,0.038 32.447,57.424 72.111,127.541 39.656,70.109 72.101,127.523 72.101,127.579 0,0.111 -45.837,77.892 -45.972,78.012 -0.062,0.055 -233.042,-420.503 -233.363,-421.235 -0.042,-0.111 15.112,-0.13 109.981,-0.111 l 110.033,0.027 z m 345.047,-79.487 c -1.121,1.984 -31.336,55.404 -67.153,118.729 -35.816,63.316 -65.088,115.152 -65.036,115.188 0.207,0.168 37.113,16.763 37.206,16.726 0.062,-0.018 32.456,-57.228 71.987,-127.124 l 71.882,-127.096 43.493,-0.009 c 30.371,0 43.493,0.028 43.461,0.103 -0.083,0.23 -238.302,421.327 -238.343,421.327 -0.031,0 -25.641,-44.311 -56.915,-98.463 l -56.873,-98.463 66.033,-112.049 c 36.324,-61.62 66.105,-112.131 66.187,-112.251 l 0.136,-0.204 h 42.984 42.984 z"
     fill="#000000"
     stroke="none"
     id="path2"
     style="fill:#ffffff;fill-opacity:1" />
  <path
     d="m 310.07874,484.62281 0.11621,255.07145 41.39549,0.1175 41.35676,0.0775 V 587.35171 434.77675 l 167.8415,167.84149 167.84149,167.8402 V 515.2695 260.12058 h -41.278 -41.27929 v 152.45875 c 0,83.84328 -0.1175,152.45876 -0.27244,152.45876 -0.19496,0 -75.78264,-75.47018 -168.07519,-167.76273 L 309.99998,229.55007 Z"
     fill="#000000"
     stroke="none"
     id="path4"
     style="stroke-width:1.29115;stroke:none;stroke-opacity:1;fill:#ffffff;fill-opacity:1" />
  <path
     d="m 3439.0158,252.75974 c -39.5272,1.24596 -74.1855,9.65779 -104.1711,25.2342 -23.9882,12.50089 -42.6414,28.11733 -56.2708,47.15918 -11.5274,16.12256 -18.537,33.64732 -21.2626,53.35153 -0.8574,5.99738 -0.9736,22.31362 -0.195,28.23353 2.4919,19.78297 8.8792,35.51561 19.9379,49.26117 3.8166,4.75142 12.8908,13.59191 18.8482,18.34205 17.3685,13.86434 33.9585,22.58734 59.1927,31.0379 22.0412,7.43702 47.7428,14.68036 82.7522,23.44209 36.8003,9.19039 66.0074,17.56348 78.4683,22.46985 12.6958,4.98512 25.1567,12.42342 33.1799,19.7055 5.14,4.7114 9.4241,11.64357 11.0587,17.99085 1.0522,4.08907 1.4021,12.30593 0.7398,18.14709 -1.7908,16.43373 -8.3718,27.7274 -22.4699,38.59241 -14.914,11.56611 -30.7254,18.30202 -53.6614,22.85849 -13.2407,2.64814 -22.1974,3.58293 -35.0482,3.58293 -14.8766,0 -26.9488,-1.44092 -40.3445,-4.75142 -25.0792,-6.15232 -51.5594,-19.35431 -71.2262,-35.47559 -1.8295,-1.47965 -11.5648,-11.05997 -21.6512,-21.26262 l -18.3421,-18.53701 -30.5304,25.46918 c -16.785,13.97926 -30.5305,25.62284 -30.4918,25.89656 0.077,0.73983 9.6578,13.04576 14.9141,19.23681 21.6138,25.15673 49.2237,45.48456 81.2338,59.81502 30.9979,13.90308 63.9829,22.04247 98.2525,24.33943 7.632,0.50613 31.0754,0.50613 39.4084,0 54.6362,-3.31051 96.4991,-18.02959 127.4983,-44.82221 17.9134,-15.42147 30.7255,-34.07468 38.0463,-55.18108 8.4118,-24.4169 9.9689,-54.59748 4.0503,-78.93691 -5.9974,-24.72807 -17.5248,-41.94036 -40.462,-60.39862 -16.4337,-13.24072 -34.1909,-22.66481 -57.868,-30.72545 -24.8843,-8.49058 -56.0771,-16.78492 -96.5765,-25.70288 -24.1058,-5.29629 -46.5369,-11.05868 -59.3089,-15.22651 -13.7081,-4.4777 -25.1567,-10.31885 -34.3872,-17.52346 -5.9573,-4.63393 -9.579,-9.46282 -11.721,-15.53767 -1.0123,-2.96061 -1.091,-3.46674 -1.091,-10.12519 0,-5.95864 0.1562,-7.51577 0.896,-10.47637 1.9471,-7.82694 5.725,-14.21296 12.111,-20.48277 11.6048,-11.52737 28.506,-20.7565 48.3277,-26.48145 20.7177,-5.99738 38.6311,-8.21686 58.8415,-7.39828 22.821,0.9348 40.5394,4.28274 57.0119,10.78625 19.2768,7.63327 37.8913,18.30332 57.9854,33.3736 4.4777,3.34924 8.2944,5.95865 8.4506,5.80242 0.8173,-0.89477 41.7454,-62.65812 41.7841,-63.04676 0.04,-0.58489 -12.4996,-10.63131 -19.3543,-15.49894 -46.613,-33.06243 -102.1065,-48.6001 -166.5555,-46.53685 z"
     fill="#000000"
     stroke="none"
     id="path6"
     style="stroke-width:1.29115;stroke:none;stroke-opacity:1;fill:#ffffff;fill-opacity:1" />
  <path
     d="m 905.70081,260.39301 c -0.42866,0.42737 -0.31117,264.45681 0.11749,274.27082 2.45319,55.29729 19.39305,100.86061 52.22178,140.2303 4.7114,5.64748 17.56219,18.65321 23.13091,23.40464 27.10381,23.09347 59.85501,38.90358 94.24091,45.44582 15.0703,2.88184 25.8965,3.73788 43.7325,3.42671 13.5131,-0.2337 20.0554,-0.77856 30.8803,-2.60941 51.0146,-8.64424 97.2002,-36.8003 128.6655,-78.46823 27.0651,-35.90424 41.9029,-77.30103 44.9785,-125.58867 0.2337,-4.2453 0.3899,-52.57297 0.3899,-143.4246 V 260.12058 h -41.2793 -41.278 l -0.1175,137.73837 c -0.1162,127.10836 -0.1562,138.2458 -0.7786,143.81452 -2.4919,22.42983 -7.5945,40.38324 -16.6287,58.41283 -12.1497,24.3007 -29.1283,42.99265 -50.8583,56.07714 -14.0193,8.45056 -28.6622,13.47442 -44.7447,15.38274 -5.9587,0.6998 -19.6268,0.8173 -25.313,0.19367 -22.3911,-2.41445 -42.2128,-10.74752 -60.9447,-25.62412 -4.7902,-3.81534 -15.7714,-14.83658 -19.5093,-19.54798 -20.1729,-25.58539 -31.42653,-55.57101 -33.84097,-90.34679 -0.2337,-3.62167 -0.38993,-54.05133 -0.38993,-140.89266 V 260.12058 h -41.20053 c -22.66482,0 -41.35677,0.1162 -41.47426,0.27243 z"
     fill="#000000"
     stroke="none"
     id="path8"
     style="stroke-width:1.29115;stroke:none;stroke-opacity:1;fill:#ffffff;fill-opacity:1" />
  <path
     d="m 1441.2742,260.31425 c 0,0.27243 245.7661,508.15841 246.0385,508.47087 0.155,0.15493 17.3686,-35.63311 38.2413,-79.52052 20.8727,-43.8887 38.0462,-79.79294 38.1637,-79.79294 0.1162,0 17.2898,35.90424 38.1625,79.79294 20.874,43.88741 38.0863,79.67545 38.2412,79.52052 0.2737,-0.31246 246.0386,-508.15841 246.0386,-508.47087 0,-0.1162 -20.874,-0.15494 -46.3806,-0.1162 l -46.4194,0.1162 -76.7161,164.41479 c -42.2141,90.46299 -76.8337,164.45352 -76.9499,164.45352 -0.1562,0 -7.672,-14.87532 -16.7849,-33.10116 -15.3427,-30.72545 -16.5112,-33.1399 -16.0825,-34.15216 0.2337,-0.5836 28.8171,-59.66008 63.5541,-131.23616 34.6971,-71.57608 63.1256,-130.26134 63.1256,-130.37883 0,-0.1162 -20.874,-0.15494 -46.3807,-0.1162 l -46.4193,0.1162 -76.5212,164.02486 c -42.1366,90.23059 -76.6774,164.06488 -76.7949,164.06488 -0.1162,0 -34.6583,-73.83429 -76.7549,-164.06488 l -76.5612,-164.02486 -46.4193,-0.1162 c -25.5066,-0.0387 -46.3806,0 -46.3806,0.1162 z"
     fill="#000000"
     stroke="none"
     id="path10"
     style="stroke-width:1.29115;stroke:none;stroke-opacity:1;fill:#ffffff;fill-opacity:1" />
  <path
     d="m 2203.1806,260.58668 c -0.1162,0.27372 -0.1549,108.18271 -0.1162,239.8075 l 0.1162,239.30008 178.6678,0.1175 178.629,0.0775 V 702.3104 664.73025 h -137.2723 -137.271 v -69.31657 -69.31787 h 129.6778 129.6777 v -37.5789 -37.58015 H 2415.6119 2285.9341 V 393.10753 335.2783 h 133.5719 133.5718 v -37.57886 -37.57886 h -174.8511 c -139.5305,0 -174.9286,0.1162 -175.0461,0.4661 z"
     fill="#000000"
     stroke="none"
     id="path12"
     style="stroke-width:1.29115;stroke:none;stroke-opacity:1;fill:#ffffff;fill-opacity:1" />
  <path
     d="m 2730.071,260.58668 c -0.1175,0.27372 -0.1562,108.18271 -0.1175,239.8075 l 0.1175,239.30008 129.2878,0.1175 c 131.2362,0.1162 136.9998,0.0775 147.7086,-1.32472 30.1419,-3.8941 56.2721,-16.12128 76.9111,-35.94298 24.1445,-23.24841 37.6189,-51.79311 40.9669,-86.80259 0.6623,-6.97091 0.7798,-23.01471 0.1949,-28.93463 -0.6223,-6.07485 -2.1807,-15.14774 -3.6604,-21.02892 -6.0361,-23.83201 -19.393,-50.2347 -34.3084,-67.72072 -2.9593,-3.4267 -10.5525,-11.01994 -13.2007,-13.16196 l -1.5584,-1.20722 3.1156,-3.42671 c 4.479,-4.90765 7.3595,-8.56806 11.1374,-14.13678 13.5132,-19.89917 21.1852,-40.4607 23.3272,-62.50189 0.5836,-5.95865 0.2337,-23.8333 -0.5849,-30.95915 -3.6992,-31.6215 -14.7979,-56.23337 -34.1134,-75.54765 -22.2362,-22.23615 -52.4555,-34.19218 -92.4876,-36.60663 -10.4763,-0.62233 -252.502,-0.54486 -252.7357,0.0775 z m 242.2206,75.08155 c 21.029,1.82956 35.0095,8.52803 44.5898,21.41756 5.3738,7.28337 8.683,15.61644 10.164,25.70289 0.6223,4.244 0.6223,16.82236 0,20.83396 -1.7534,11.33241 -5.53,19.97664 -12.151,27.99983 -8.5668,10.31886 -19.6268,15.77138 -37.9288,18.57446 -2.3757,0.38993 -22.0812,0.54616 -83.6096,0.62362 l -80.5328,0.15623 V 393.10753 335.2783 h 77.4173 c 49.6511,0 79.0531,0.15623 82.0511,0.38993 z m 6.621,190.85621 c 13.2007,1.12975 25.4679,5.29628 34.892,11.83853 4.2841,2.95931 12.306,11.09871 15.6152,15.77137 8.6842,12.30594 12.7733,25.0005 13.4357,41.8629 0.7785,20.91272 -4.8677,37.19022 -17.1736,49.45742 -10.2027,10.16392 -22.1587,15.61514 -40.3445,18.38078 -4.1278,0.62234 -11.0199,0.66107 -88.4772,0.77856 l -84.037,0.15623 v -69.35659 -69.31787 h 80.7278 c 52.2605,0 82.3236,0.15623 85.3616,0.42867 z"
     fill="#000000"
     stroke="none"
     id="path14"
     style="stroke-width:1.29115;stroke:none;stroke-opacity:1;fill:#ffffff;fill-opacity:1" />
</svg>
